<svg width="40" height="33" viewBox="0 0 40 33" fill="none" xmlns="http://www.w3.org/2000/svg">
<path d="M39.36 7.51999C36.24 7.51999 33.8 8.43999 32.04 10.28C30.36 12.12 29.52 14.72 29.52 18.08H22.08C22.08 12.8 23.64 8.6 26.76 5.48C29.88 2.36 34.08 0.799995 39.36 0.799995V7.51999ZM36.96 32.48H22.08V18.08H36.96V32.48ZM17.4 7.51999C14.28 7.51999 11.84 8.43999 10.08 10.28C8.4 12.12 7.56 14.72 7.56 18.08H0.12C0.12 12.8 1.68 8.6 4.8 5.48C7.92 2.36 12.12 0.799995 17.4 0.799995V7.51999ZM15 32.48H0.12V18.08H15V32.48Z" fill="#85FAA1"/>
</svg>
